# xmcd
#
# Track frame offsets:
#	150
#	16030
#	29598
#	47549
#	60596
#	83886
#	105170
#	125736
#	139101
#	163221
#	187904
#	206439
#	225377
#	269477
#
# Disc length: 4600 seconds
#
# Revision: 0
# Processed by: cddbd v1.5.2PL0 Copyright (c) Steve Scherf et al.
# Submitted via: audiograbber 1.83.01
#
DISCID=b311f60e
DTITLE=Various Artist - Blue Rose Nuggets 24
DYEAR=2007
DGENRE=Country Rock
TTITLE0=Rainravens - Good Luck Charm
TTITLE1=Fred Haring - Carousel
TTITLE2=Chris Cacavas - Perfect Show
TTITLE3=Danny and Dusty - That's What Brought Me Here
TTITLE4=Joseph Parsons and Todd Thibaud - Jerusalem
TTITLE5=Rickie Lee Jones - Falling Up
TTITLE6=Driveway - Winter
TTITLE7=Steeplejack - Stain
TTITLE8=Elliott Murphy - A Touch Of Kindness
TTITLE9=Rich Hopkins and Luminiarios - Haters
TTITLE10=The Bottle Rockets - Better Than Broken
TTITLE11=Robert Nc Entee - Mission Row
TTITLE12=Blue Rose Rockestra - For What It's Worth
TTITLE13=The Brandos - MPEG Video track
EXTD=
EXTT0=From Album: "Garden Rocket"
EXTT1=
EXTT2=
EXTT3=
EXTT4=
EXTT5=
EXTT6=
EXTT7=
EXTT8=
EXTT9=
EXTT10=
EXTT11=
EXTT12=
EXTT13=
PLAYORDER=
